<?xml version="1.0" encoding="UTF-8"?>
<svg version="1.1" xmlns="http://www.w3.org/2000/svg" width="256" height="256">
<path d="M0 0 C1.10730469 -0.02449219 2.21460937 -0.04898437 3.35546875 -0.07421875 C10.79205888 -0.10074642 16.74815648 0.63481548 22.33691406 5.8581543 C24.67155113 8.46747827 25.75 9.80609104 25.75 13.375 C26.41 13.375 27.07 13.375 27.75 13.375 C27.8325 12.818125 27.915 12.26125 28 11.6875 C29.49363026 7.08214002 32.07330545 4.80077652 36.12109375 2.25390625 C41.66805659 -0.41794902 47.1983656 -0.24837443 53.25 -0.1875 C54.33925781 -0.21134766 55.42851562 -0.23519531 56.55078125 -0.25976562 C63.57421406 -0.24702663 68.35379366 0.74235942 73.75 5.375 C77.79608677 9.74051468 80.00795043 13.3326175 79.97705078 19.32714844 C79.97682419 20.79822052 79.97682419 20.79822052 79.97659302 22.29901123 C79.96627045 23.35018127 79.95594788 24.40135132 79.9453125 25.484375 C79.9424826 26.56632141 79.93965271 27.64826782 79.93673706 28.76300049 C79.92554609 32.21711304 79.9004432 35.67096588 79.875 39.125 C79.86496881 41.46744417 79.8558432 43.80989241 79.84765625 46.15234375 C79.8256103 51.89331771 79.79214334 57.6341403 79.75 63.375 C80.34611084 63.36389694 80.94222168 63.35279388 81.55639648 63.34135437 C87.7859797 63.23035008 94.01527994 63.15516305 100.24560547 63.1003418 C102.56766175 63.07526734 104.88963965 63.04119908 107.21142578 62.99780273 C110.55781441 62.93684195 113.90315553 62.90871851 117.25 62.88671875 C118.79578735 62.84800911 118.79578735 62.84800911 120.37280273 62.80851746 C127.11986377 62.80591849 131.53839888 63.99192611 136.75 68.375 C143.04759468 75.16977321 143.11471399 80.66588432 143.125 89.625 C143.14949219 90.73230469 143.17398438 91.83960937 143.19921875 92.98046875 C143.22574642 100.41705888 142.49018452 106.37315648 137.2668457 111.96191406 C134.65752173 114.29655113 133.31890896 115.375 129.75 115.375 C129.75 116.035 129.75 116.695 129.75 117.375 C130.306875 117.4575 130.86375 117.54 131.4375 117.625 C136.04285998 119.11863026 138.32422348 121.69830545 140.87109375 125.74609375 C143.54294902 131.29305659 143.37337443 136.8233656 143.3125 142.875 C143.33634766 143.96425781 143.36019531 145.05351562 143.38476562 146.17578125 C143.37202663 153.19921406 142.38264058 157.97879366 137.75 163.375 C133.38448532 167.42108677 129.7923825 169.63295043 123.79785156 169.60205078 C122.81713684 169.60189972 121.83642212 169.60174866 120.82598877 169.60159302 C119.77481873 169.59127045 118.72364868 169.58094788 117.640625 169.5703125 C116.55867859 169.5674826 115.47673218 169.56465271 114.36199951 169.56173706 C110.90788696 169.55054609 107.45403412 169.5254432 104 169.5 C101.65755583 169.48996881 99.31510759 169.4808432 96.97265625 169.47265625 C91.23168229 169.4506103 85.4908597 169.41714334 79.75 169.375 C79.76110306 169.97111084 79.77220612 170.56722168 79.78364563 171.18139648 C79.89464992 177.4109797 79.96983695 183.64027994 80.0246582 189.87060547 C80.04973266 192.19266175 80.08380092 194.51463965 80.12719727 196.83642578 C80.18815805 200.18281441 80.21628149 203.52815553 80.23828125 206.875 C80.26408768 207.9055249 80.2898941 208.9360498 80.31648254 209.99780273 C80.31908151 216.74486377 79.13307389 221.16339888 74.75 226.375 C67.95522679 232.67259468 62.45911568 232.73971399 53.5 232.75 C52.39269531 232.77449219 51.28539062 232.79898438 50.14453125 232.82421875 C42.70794112 232.85074642 36.75184352 232.11518452 31.16308594 226.8918457 C28.82844887 224.28252173 27.75 222.94390896 27.75 219.375 C27.09 219.375 26.43 219.375 25.75 219.375 C25.6675 219.931875 25.585 220.48875 25.5 221.0625 C24.00636974 225.66785998 21.42669455 227.94922348 17.37890625 230.49609375 C11.83194341 233.16794902 6.3016344 232.99837443 0.25 232.9375 C-0.83925781 232.96134766 -1.92851563 232.98519531 -3.05078125 233.00976562 C-10.07421406 232.99702663 -14.85379366 232.00764058 -20.25 227.375 C-24.29608677 223.00948532 -26.50795043 219.4173825 -26.47705078 213.42285156 C-26.47689972 212.44213684 -26.47674866 211.46142212 -26.47659302 210.45098877 C-26.46627045 209.39981873 -26.45594788 208.34864868 -26.4453125 207.265625 C-26.4424826 206.18367859 -26.43965271 205.10173218 -26.43673706 203.98699951 C-26.42554609 200.53288696 -26.4004432 197.07903412 -26.375 193.625 C-26.36496881 191.28255583 -26.3558432 188.94010759 -26.34765625 186.59765625 C-26.3256103 180.85668229 -26.29214334 175.1158597 -26.25 169.375 C-26.84611084 169.38610306 -27.44222168 169.39720612 -28.05639648 169.40864563 C-34.2859797 169.51964992 -40.51527994 169.59483695 -46.74560547 169.6496582 C-49.06766175 169.67473266 -51.38963965 169.70880092 -53.71142578 169.75219727 C-57.05781441 169.81315805 -60.40315553 169.84128149 -63.75 169.86328125 C-65.29578735 169.90199089 -65.29578735 169.90199089 -66.87280273 169.94148254 C-73.61986377 169.94408151 -78.03839888 168.75807389 -83.25 164.375 C-89.54759468 157.58022679 -89.61471399 152.08411568 -89.625 143.125 C-89.64949219 142.01769531 -89.67398438 140.91039062 -89.69921875 139.76953125 C-89.72574642 132.33294112 -88.99018452 126.37684352 -83.7668457 120.78808594 C-81.15752173 118.45344887 -79.81890896 117.375 -76.25 117.375 C-76.25 116.715 -76.25 116.055 -76.25 115.375 C-76.806875 115.2925 -77.36375 115.21 -77.9375 115.125 C-82.54285998 113.63136974 -84.82422348 111.05169455 -87.37109375 107.00390625 C-90.04294902 101.45694341 -89.87337443 95.9266344 -89.8125 89.875 C-89.83634766 88.78574219 -89.86019531 87.69648437 -89.88476562 86.57421875 C-89.87202663 79.55078594 -88.88264058 74.77120634 -84.25 69.375 C-79.88448532 65.32891323 -76.2923825 63.11704957 -70.29785156 63.14794922 C-69.31713684 63.14810028 -68.33642212 63.14825134 -67.32598877 63.14840698 C-65.7492337 63.16389084 -65.7492337 63.16389084 -64.140625 63.1796875 C-62.51770538 63.18393234 -62.51770538 63.18393234 -60.86199951 63.18826294 C-57.40788696 63.19945391 -53.95403412 63.2245568 -50.5 63.25 C-48.15755583 63.26003119 -45.81510759 63.2691568 -43.47265625 63.27734375 C-37.73168229 63.2993897 -31.9908597 63.33285666 -26.25 63.375 C-26.26665459 62.48083374 -26.26665459 62.48083374 -26.28364563 61.56860352 C-26.39464992 55.3390203 -26.46983695 49.10972006 -26.5246582 42.87939453 C-26.54973266 40.55733825 -26.58380092 38.23536035 -26.62719727 35.91357422 C-26.68815805 32.56718559 -26.71628149 29.22184447 -26.73828125 25.875 C-26.76408768 24.8444751 -26.7898941 23.8139502 -26.81648254 22.75219727 C-26.81908151 16.00513623 -25.63307389 11.58660112 -21.25 6.375 C-14.45522679 0.07740532 -8.95911568 0.01028601 0 0 Z M25.75 76.375 C25.47027344 77.19742188 25.19054687 78.01984375 24.90234375 78.8671875 C18.91206986 95.5475 9.6509386 105.41404066 -6.11328125 113.02734375 C-8.53431392 114.06751345 -10.67898805 114.87349397 -13.25 115.375 C-13.25 116.035 -13.25 116.695 -13.25 117.375 C-12.42757812 117.65472656 -11.60515625 117.93445313 -10.7578125 118.22265625 C5.9225 124.21293014 15.78904066 133.4740614 23.40234375 149.23828125 C24.44251345 151.65931392 25.24849397 153.80398805 25.75 156.375 C26.41 156.375 27.07 156.375 27.75 156.375 C28.02972656 155.55257812 28.30945313 154.73015625 28.59765625 153.8828125 C34.58793014 137.2025 43.8490614 127.33595934 59.61328125 119.72265625 C62.03431392 118.68248655 64.17898805 117.87650603 66.75 117.375 C66.75 116.715 66.75 116.055 66.75 115.375 C65.92757812 115.09527344 65.10515625 114.81554687 64.2578125 114.52734375 C47.5775 108.53706986 37.71095934 99.2759386 30.09765625 83.51171875 C29.05748655 81.09068608 28.25150603 78.94601195 27.75 76.375 C27.09 76.375 26.43 76.375 25.75 76.375 Z " fill="#00A5E9" transform="translate(101.25,11.625)"/>
<path d="M0 0 C17.49 0 34.98 0 53 0 C53.103125 8.085 53.20625 16.17 53.3125 24.5 C53.35802002 27.03751953 53.40354004 29.57503906 53.45043945 32.18945312 C53.46505423 34.22003867 53.47779256 36.25063895 53.48828125 38.28125 C53.526651 39.83924316 53.526651 39.83924316 53.5657959 41.42871094 C53.56986046 48.25066281 52.45011733 52.73447563 48 58 C41.20522679 64.29759468 35.70911568 64.36471399 26.75 64.375 C25.64269531 64.39949219 24.53539062 64.42398438 23.39453125 64.44921875 C16.00785332 64.47556837 9.96051577 63.78601625 4.44848633 58.5168457 C0.85452503 54.42148977 -0.12666527 51.29943434 -0.11352539 45.9777832 C-0.11340454 44.9427063 -0.11328369 43.90762939 -0.11315918 42.84118652 C-0.10804321 41.75535278 -0.10292725 40.66951904 -0.09765625 39.55078125 C-0.09664917 38.55123413 -0.09564209 37.55168701 -0.09460449 36.52185059 C-0.08936957 32.78538873 -0.07540832 29.04894322 -0.0625 25.3125 C-0.041875 16.959375 -0.02125 8.60625 0 0 Z " fill="#0063CB" transform="translate(128,180)"/>
<path d="M0 0 C1.55261536 0.00018127 1.55261536 0.00018127 3.13659668 0.00036621 C4.22243042 0.00548218 5.30826416 0.01059814 6.42700195 0.01586914 C7.92632263 0.01737976 7.92632263 0.01737976 9.45593262 0.0189209 C13.19239447 0.02415582 16.92883998 0.03811708 20.6652832 0.05102539 C29.0184082 0.07165039 37.3715332 0.09227539 45.9777832 0.11352539 C45.9777832 17.60352539 45.9777832 35.09352539 45.9777832 53.11352539 C37.8927832 53.21665039 29.8077832 53.31977539 21.4777832 53.42602539 C18.94026367 53.47154541 16.40274414 53.51706543 13.78833008 53.56396484 C11.75774453 53.57857962 9.72714425 53.59131795 7.6965332 53.60180664 C6.65787109 53.62738647 5.61920898 53.65296631 4.54907227 53.67932129 C-2.27287961 53.68338585 -6.75669242 52.56364272 -12.0222168 48.11352539 C-18.31981148 41.31875218 -18.38693079 35.82264107 -18.3972168 26.86352539 C-18.42170898 25.7562207 -18.44620117 24.64891602 -18.47143555 23.50805664 C-18.49778517 16.12137871 -17.80823305 10.07404116 -12.5390625 4.56201172 C-8.44370657 0.96805042 -5.32165114 -0.01313988 0 0 Z " fill="#0063CB" transform="translate(30.022216796875,127.886474609375)"/>
<path d="M0 0 C8.085 -0.103125 16.17 -0.20625 24.5 -0.3125 C27.03751953 -0.35802002 29.57503906 -0.40354004 32.18945312 -0.45043945 C34.22003867 -0.46505423 36.25063895 -0.47779256 38.28125 -0.48828125 C39.31991211 -0.51386108 40.35857422 -0.53944092 41.42871094 -0.5657959 C48.25066281 -0.56986046 52.73447563 0.54988267 58 5 C64.29759468 11.79477321 64.36471399 17.29088432 64.375 26.25 C64.39949219 27.35730469 64.42398438 28.46460938 64.44921875 29.60546875 C64.47556837 36.99214668 63.78601625 43.03948423 58.5168457 48.55151367 C54.42148977 52.14547497 51.29943434 53.12666527 45.9777832 53.11352539 C44.42516785 53.11334412 44.42516785 53.11334412 42.84118652 53.11315918 C41.75535278 53.10804321 40.66951904 53.10292725 39.55078125 53.09765625 C38.05146057 53.09614563 38.05146057 53.09614563 36.52185059 53.09460449 C32.78538873 53.08936957 29.04894322 53.07540832 25.3125 53.0625 C16.959375 53.041875 8.60625 53.02125 0 53 C0 35.51 0 18.02 0 0 Z " fill="#0063CB" transform="translate(180,75)"/>
<path d="M0 0 C1.10730469 -0.02449219 2.21460938 -0.04898437 3.35546875 -0.07421875 C10.74214668 -0.10056837 16.78948423 0.58898375 22.30151367 5.8581543 C25.89547497 9.95351023 26.87666527 13.07556566 26.86352539 18.3972168 C26.86340454 19.4322937 26.86328369 20.46737061 26.86315918 21.53381348 C26.85804321 22.61964722 26.85292725 23.70548096 26.84765625 24.82421875 C26.84664917 25.82376587 26.84564209 26.82331299 26.84460449 27.85314941 C26.83936957 31.58961127 26.82540832 35.32605678 26.8125 39.0625 C26.791875 47.415625 26.77125 55.76875 26.75 64.375 C9.26 64.375 -8.23 64.375 -26.25 64.375 C-26.353125 56.29 -26.45625 48.205 -26.5625 39.875 C-26.60802002 37.33748047 -26.65354004 34.79996094 -26.70043945 32.18554688 C-26.71505423 30.15496133 -26.72779256 28.12436105 -26.73828125 26.09375 C-26.76386108 25.05508789 -26.78944092 24.01642578 -26.8157959 22.94628906 C-26.81986046 16.12433719 -25.70011733 11.64052437 -21.25 6.375 C-14.45522679 0.07740532 -8.95911568 0.01028601 0 0 Z " fill="#0063CB" transform="translate(101.25,11.625)"/>
<path d="M0 0 C0.66 0 1.32 0 2 0 C2 4.95 2 9.9 2 15 C-15.49 15 -32.98 15 -51 15 C-51 13.68 -51 12.36 -51 11 C-50.26998779 10.95512451 -49.53997559 10.91024902 -48.7878418 10.86401367 C-45.42019927 10.65025848 -42.0539689 10.41897891 -38.6875 10.1875 C-36.96563477 10.08211914 -36.96563477 10.08211914 -35.20898438 9.97460938 C-25.18578595 9.26475113 -16.20104383 7.03800035 -6.875 3.375 C-5.77929688 2.94960938 -4.68359375 2.52421875 -3.5546875 2.0859375 C-1.11022628 1.23493761 -1.11022628 1.23493761 0 0 Z " fill="#0034AE" transform="translate(126,61)"/>
<path d="M0 0 C1.32 0 2.64 0 4 0 C4.02578125 0.97195312 4.0515625 1.94390625 4.078125 2.9453125 C4.65237703 18.53462274 5.82568047 35.24596754 13.828125 48.953125 C15 51 15 51 15 53 C10.05 53 5.1 53 0 53 C0 35.51 0 18.02 0 0 Z " fill="#0034AE" transform="translate(180,75)"/>
<path d="M0 0 C4.95 0 9.9 0 15 0 C15 17.49 15 34.98 15 53 C13.68 53 12.36 53 11 53 C10.97421875 51.83726562 10.9484375 50.67453125 10.921875 49.4765625 C10.42989518 33.95549816 7.92866468 19.42309601 2 5 C1.34 3.35 0.68 1.7 0 0 Z " fill="#0034AE" transform="translate(61,128)"/>
<path d="M0 0 C17.49 0 34.98 0 53 0 C53 1.32 53 2.64 53 4 C52.31711914 4.02916504 51.63423828 4.05833008 50.93066406 4.08837891 C34.18782221 4.88205131 16.5745536 5.83963329 2 15 C1.34 15 0.68 15 0 15 C0 10.05 0 5.1 0 0 Z " fill="#0034AE" transform="translate(128,180)"/>
</svg>
